<svg xmlns="http://www.w3.org/2000/svg" viewBox="0 0 240 240" role="img" aria-label="NewFit icon">
<title>NewFit icon</title>
<circle cx="120" cy="120" r="106" fill="none" stroke="#C9A227" stroke-width="9"/>
<path transform="translate(78.05 160.00)" d="M79.95685473632813 -83.544V-81.184Q76.03926049804687 -80.94799279785155 74.02146337890625 -79.74438415527342Q72.00366625976562 -78.5407755126953 71.31926770019531 -75.9093589477539Q70.634869140625 -73.2779423828125 70.634869140625 -68.43991357421875V0.47199279785156245Q69.7144561767578 0.4247899169921875 68.78223889160157 0.4247899169921875Q67.85002160644531 0.4247899169921875 66.81160144042968 0.47199279785156245L16.708768310546873 -72.21576953124999V-15.576115234375Q16.708768310546873 -10.596470581054687 17.452166870117185 -7.8234489746093745Q18.1955654296875 -5.050427368164062 20.543768310546874 -3.8822172851562495Q22.89197119140625 -2.714007202148437 27.68278271484375 -2.36V0.0Q25.511579833984374 -0.236 22.018775512695314 -0.295Q18.52597119140625 -0.354 15.410768310546874 -0.354Q12.531572631835937 -0.354 9.581576232910155 -0.295Q6.631579833984374 -0.236 4.67278271484375 0.0V-2.36Q8.613978393554687 -2.714007202148437 10.619974792480468 -3.8586158447265624Q12.625971191406249 -5.003224487304688 13.310369750976562 -7.693641052246093Q13.994768310546874 -10.3840576171875 13.994768310546874 -15.104086425781249V-71.036Q13.994768310546874 -75.402 13.310369750976562 -77.467Q12.625971191406249 -79.532 10.608174072265625 -80.299Q8.590376953125 -81.066 4.67278271484375 -81.184V-83.544Q6.631579833984374 -83.426 9.581576232910155 -83.30799999999999Q12.531572631835937 -83.19 15.410768310546874 -83.19Q18.077572631835938 -83.19 20.531978393554688 -83.30799999999999Q22.986384155273438 -83.426 24.9451884765625 -83.544L67.920869140625 -21.995361328125V-67.967884765625Q67.920869140625 -73.04192797851562 67.17747058105468 -75.76775030517578Q66.43407202148437 -78.49357263183593 64.09766986083984 -79.72078271484375Q61.76126770019531 -80.94799279785155 56.94685473632812 -81.184V-83.544Q59.118057617187496 -83.426 62.65806121826172 -83.30799999999999Q66.19806481933594 -83.19 69.218869140625 -83.19Q72.21606481933594 -83.19 75.15426049804688 -83.30799999999999Q78.0924561767578 -83.426 79.95685473632813 -83.544Z" fill="#2B2B2B"/>
</svg>