<svg xmlns="http://www.w3.org/2000/svg" viewBox="0 0 600 330" role="img" aria-label="NewFit logo">
<title>NewFit</title>
<circle cx="300" cy="120" r="78" fill="none" stroke="#C9A227" stroke-width="2.2"/>
<circle cx="300" cy="120" r="66" fill="none" stroke="#C9A227" stroke-width="1"/>
<path transform="translate(269.43 148.00)" d="M58.27363989257812 -60.888V-59.16799999999999Q55.41844409179687 -58.99599475097656 53.94784619140624 -58.118788452148436Q52.47724829101562 -57.24158215332031 51.978449340820305 -55.323770080566405Q51.479650390625 -53.405958007812494 51.479650390625 -49.879937011718745V0.34399475097656246Q50.80884094238281 0.3095926513671875 50.12942834472656 0.3095926513671875Q49.45001574707031 0.3095926513671875 48.693201049804685 0.34399475097656246L12.177576904296874 -52.63183203125V-11.352083984375Q12.177576904296874 -7.722851440429687 12.719375854492187 -5.701835693359374Q13.2611748046875 -3.6808199462890623 14.972576904296874 -2.82941259765625Q16.68397900390625 -1.9780052490234374 20.175587402343748 -1.7199999999999998V0.0Q18.593185302734373 -0.172 16.04758215332031 -0.215Q13.501979003906248 -0.258 11.231576904296874 -0.258Q9.133180053710937 -0.258 6.983182678222656 -0.215Q4.833185302734375 -0.172 3.4055874023437496 0.0V-1.7199999999999998Q6.277984252929687 -1.9780052490234374 7.7399816284179686 -2.8122115478515624Q9.20197900390625 -3.6464178466796873 9.70077795410156 -5.6072299194335935Q10.199576904296874 -7.568041992187499 10.199576904296874 -11.00806298828125V-51.772Q10.199576904296874 -54.95399999999999 9.70077795410156 -56.458999999999996Q9.20197900390625 -57.964 7.731381103515624 -58.522999999999996Q6.2607832031249995 -59.081999999999994 3.4055874023437496 -59.16799999999999V-60.888Q4.833185302734375 -60.80199999999999 6.983182678222656 -60.715999999999994Q9.133180053710937 -60.629999999999995 11.231576904296874 -60.629999999999995Q13.175180053710937 -60.629999999999995 14.963984252929688 -60.715999999999994Q16.752788452148437 -60.80199999999999 18.180391601562498 -60.888L49.501650390624995 -16.030517578125V-49.535916015625Q49.501650390624995 -53.23394750976562 48.95985144042969 -55.22056378173828Q48.41805249023437 -57.207180053710935 46.71525091552734 -58.101587402343746Q45.01244934082031 -58.99599475097656 41.50363989257812 -59.16799999999999V-60.888Q43.086041992187496 -60.80199999999999 45.66604461669921 -60.715999999999994Q48.24604724121093 -60.629999999999995 50.44765039062499 -60.629999999999995Q52.632047241210934 -60.629999999999995 54.773444091796875 -60.715999999999994Q56.91484094238281 -60.80199999999999 58.27363989257812 -60.888Z" fill="#FAF6F0"/>
<line x1="12.3" y1="283" x2="74.3" y2="283" stroke="#C9A227" stroke-width="1.4"/>
<line x1="525.7" y1="283" x2="587.7" y2="283" stroke="#C9A227" stroke-width="1.4"/>
<path transform="translate(98.30 292.00)" d="M12.398398681640625 0.0V-0.54Q13.300197692871093 -0.594 13.758622365748629 -0.756Q14.217047038626163 -0.918 14.374221212184175 -1.404Q14.531395385742186 -1.89 14.531395385742186 -2.862V-16.254Q14.531395385742186 -17.253 14.373531808406748 -17.7255Q14.215668231071309 -18.198 13.75523279717628 -18.3735Q13.29479736328125 -18.549 12.398398681640625 -18.576V-19.116Q13.062601318359375 -19.089 14.080505767822267 -19.061999999999998Q15.098410217285156 -19.035 16.097415161132812 -19.035Q17.217338871750876 -19.035 18.193682619469186 -19.061999999999998Q19.1700263671875 -19.089 19.769428344726563 -19.116V-18.576Q18.87271660050102 -18.549 18.411173790973166 -18.3735Q17.949630981445313 -18.198 17.793031311035158 -17.7255Q17.636431640625 -17.253 17.636431640625 -16.254V-2.862Q17.636431640625 -1.89 17.794431396484374 -1.404Q17.95243115234375 -0.918 18.41326377360026 -0.756Q18.87409639485677 -0.594 19.769428344726563 -0.54V0.0Q19.1700263671875 -0.054 18.193682619469186 -0.0675Q17.217338871750876 -0.081 16.097415161132812 -0.081Q15.098410217285156 -0.081 14.080505767822267 -0.0675Q13.062601318359375 -0.054 12.398398681640625 0.0ZM1.0583953857421875 0.0V-0.54Q1.9601943969726563 -0.594 2.418619069850191 -0.756Q2.877043742727726 -0.918 3.034217916285738 -1.404Q3.19139208984375 -1.89 3.19139208984375 -2.862V-16.254Q3.19139208984375 -17.253 3.033528512508311 -17.7255Q2.8756649351728725 -18.198 2.4152295012778424 -18.3735Q1.9547940673828126 -18.549 1.0583953857421875 -18.576V-19.116Q1.6696949644088745 -19.089 2.6594180917739867 -19.061999999999998Q3.649141219139099 -19.035 4.784411865234375 -19.035Q5.7942158203125 -19.035 6.785119445800781 -19.061999999999998Q7.776023071289062 -19.089 8.429425048828126 -19.116V-18.576Q7.532713304602581 -18.549 7.071170495074728 -18.3735Q6.609627685546875 -18.198 6.453028015136718 -17.7255Q6.2964283447265625 -17.253 6.2964283447265625 -16.254V-2.862Q6.2964283447265625 -1.89 6.454428100585938 -1.404Q6.612427856445312 -0.918 7.073260477701823 -0.756Q7.534093098958334 -0.594 8.429425048828126 -0.54V0.0Q7.776023071289062 -0.054 6.785119445800781 -0.0675Q5.7942158203125 -0.081 4.784411865234375 -0.081Q3.649141219139099 -0.081 2.6594180917739867 -0.0675Q1.6696949644088745 -0.054 1.0583953857421875 0.0ZM5.081411865234375 -9.342V-9.882H15.746411865234375V-9.342Z M40.06650555705338 -19.494Q42.72839096651146 -19.494 44.731809985208855 -18.333Q46.735229003906255 -17.172 47.84223147583008 -14.9985Q48.94923394775391 -12.825 48.94923394775391 -9.72Q48.94923394775391 -6.696 47.81443016793231 -4.428Q46.679626388110705 -2.16 44.66219744620564 -0.891Q42.644768504300565 0.378 40.03892278767319 0.378Q37.37703737821511 0.378 35.37361835951771 -0.7829999999999999Q33.370199340820314 -1.944 32.263196868896486 -4.131Q31.156194396972655 -6.318 31.156194396972655 -9.395999999999999Q31.156194396972655 -12.42 32.305008100001935 -14.687999999999999Q33.45382180303121 -16.956 35.457240821728604 -18.225Q37.460659840426 -19.494 40.06650555705338 -19.494ZM39.95630066975271 -19.008Q38.284219116210934 -19.008 37.047622741699215 -17.793Q35.8110263671875 -16.578 35.130628509521486 -14.445Q34.45023065185547 -12.312 34.45023065185547 -9.504Q34.45023065185547 -6.642 35.210448070985485 -4.5225Q35.9706654901155 -2.403 37.272054631338065 -1.2555Q38.57344377256064 -0.108 40.14541877482949 -0.108Q41.82047410511596 -0.108 43.057438041327515 -1.323Q44.29440197753906 -2.538 44.974799835205076 -4.6845Q45.65519769287109 -6.8309999999999995 45.65519769287109 -9.612Q45.65519769287109 -12.501 44.89376587086804 -14.607Q44.132334048864976 -16.713 42.841771638690304 -17.860500000000002Q41.551209228515624 -19.008 39.95630066975271 -19.008Z M77.10840856933594 -19.116V-18.576Q76.21200988769532 -18.52199835205078 75.750310546875 -18.246596374511718Q75.2886112060547 -17.971194396972656 75.13201153564454 -17.369090606689454Q74.97541186523438 -16.76698681640625 74.97541186523438 -15.659980224609376V-7.857Q74.97541186523438 -6.01020263671875 74.7351120300293 -4.590001647949219Q74.49481219482422 -3.1698006591796877 73.86841186523438 -2.133Q73.18801153564453 -0.9935996704101563 71.87311038208009 -0.30779983520507814Q70.55820922851562 0.378 68.75460131835938 0.378Q67.46940197753906 0.378 66.25439950561523 0.07560049438476563Q65.0393970336914 -0.22679901123046875 64.1105947265625 -1.0475980224609376Q63.30059307861328 -1.7873970336914062 62.846992584228516 -2.6513986816406248Q62.39339208984375 -3.5154003295898435 62.23139208984375 -4.7466013183593745Q62.06939208984375 -5.977802307128906 62.06939208984375 -7.776V-16.254Q62.06939208984375 -17.253 61.9127924194336 -17.7255Q61.75619274902344 -18.198 61.297193572998054 -18.3735Q60.83819439697266 -18.549 59.93639538574219 -18.576V-19.116Q60.54659802246094 -19.089 61.53750247192383 -19.061999999999998Q62.52840692138672 -19.035 63.65161120605469 -19.035Q64.68841680908203 -19.035 65.69282125854491 -19.061999999999998Q66.6972257080078 -19.089 67.36142834472656 -19.116V-18.576Q66.44342834472657 -18.549 65.97092834472656 -18.3735Q65.49842834472656 -18.198 65.33642834472656 -17.7255Q65.17442834472656 -17.253 65.17442834472656 -16.254V-6.901174621582031Q65.17442834472656 -5.534975280761719 65.3256293334961 -4.371279235839844Q65.47683032226563 -3.2075831909179686 65.89533032226564 -2.354387969970703Q66.31383032226563 -1.5011927490234376 67.13192752075196 -1.0340963745117189Q67.95002471923829 -0.567 69.26221746826172 -0.567Q71.26561450195312 -0.567 72.36721334838867 -1.466099670410156Q73.46881219482422 -2.3651993408203125 73.91161203002929 -3.9554991760253904Q74.35441186523437 -5.545799011230469 74.35441186523437 -7.56V-15.5519736328125Q74.35441186523437 -16.712983520507812 74.14111285400391 -17.33668862915039Q73.92781384277345 -17.96039373779297 73.3824135131836 -18.241196044921875Q72.83701318359375 -18.52199835205078 71.84340856933593 -18.576V-19.116Q72.34020922851562 -19.089 73.15021005249022 -19.061999999999998Q73.96021087646484 -19.035 74.65141186523438 -19.035Q75.33721087646484 -19.035 76.00950988769532 -19.061999999999998Q76.68180889892578 -19.089 77.10840856933594 -19.116Z M93.91141516113282 -19.42920098876953Q95.34242010498048 -19.42920098876953 96.09842340087891 -19.110600494384762Q96.85442669677735 -18.791999999999998 97.42142834472656 -18.414Q97.74542834472656 -18.225 97.94792834472656 -18.1305Q98.15042834472656 -18.036 98.33942834472657 -18.036Q98.60942834472657 -18.036 98.73092834472656 -18.333Q98.85242834472656 -18.63 98.93342834472656 -19.224H99.55442834472657Q99.52742834472657 -18.743398681640624 99.48692834472658 -18.08459719848633Q99.44642834472657 -17.425795715332033 99.43292834472658 -16.345793243408202Q99.41942834472657 -15.265790771484374 99.41942834472657 -13.499986816406249H98.79842834472657Q98.71202801513672 -14.833789123535157 98.20712686157228 -16.064991760253907Q97.70222570800782 -17.296194396972655 96.75452471923828 -18.08459637451172Q95.80682373046875 -18.872998352050782 94.31642504882814 -18.872998352050782Q92.93402801513672 -18.872998352050782 92.03222982788085 -18.05220098876953Q91.130431640625 -17.23140362548828 91.130431640625 -15.865205932617187Q91.130431640625 -14.693408569335938 91.7244299926758 -13.891509887695314Q92.31842834472657 -13.089611206054688 93.35792834472656 -12.403809722900391Q94.39742834472656 -11.718008239746094 95.70963427734375 -10.875602966308593Q97.07583197021485 -10.017003295898437 98.14773065185548 -9.16920346069336Q99.2196293334961 -8.321403625488282 99.84602883911134 -7.290003295898438Q100.47242834472657 -6.258602966308594 100.47242834472657 -4.79520263671875Q100.47242834472657 -3.0510016479492186 99.64352554321289 -1.9062009887695313Q98.81462274169922 -0.7614003295898437 97.4430181274414 -0.19170016479492186Q96.0714135131836 0.378 94.42440856933594 0.378Q92.91240362548828 0.378 92.02410049438477 0.05399999999999999Q91.13579736328126 -0.27 90.5093953857422 -0.621Q89.91539538574219 -0.999 89.59139538574219 -0.999Q89.32139538574219 -0.999 89.1998953857422 -0.702Q89.0783953857422 -0.40499999999999997 88.9973953857422 0.189H88.37639538574219Q88.43039538574219 -0.4050016479492187 88.4438953857422 -1.2069036254882812Q88.45739538574219 -2.008805603027344 88.47089538574218 -3.299408569335937Q88.48439538574219 -4.590011535644531 88.48439538574219 -6.561016479492188H89.1053953857422Q89.21339538574219 -4.88701318359375 89.7128953857422 -3.434410217285156Q90.2123953857422 -1.9818072509765625 91.25189538574219 -1.0989052734375Q92.29139538574219 -0.2160032958984375 94.01939538574219 -0.2160032958984375Q94.93199670410156 -0.2160032958984375 95.71229571533203 -0.56970263671875Q96.4925947265625 -0.9234019775390625 96.98399340820313 -1.6793995056152342Q97.47539208984375 -2.435397033691406 97.47539208984375 -3.617991760253906Q97.47539208984375 -4.73039208984375 96.95159225463868 -5.559292419433594Q96.4277924194336 -6.388192749023437 95.49629324340822 -7.109093078613281Q94.56479406738282 -7.829993408203125 93.31739538574219 -8.585993408203125Q92.0483953857422 -9.385194396972656 90.9413953857422 -10.205995056152343Q89.8343953857422 -11.026795715332032 89.1728953857422 -12.095995880126953Q88.51139538574219 -13.165196044921874 88.51139538574219 -14.671795715332031Q88.51139538574219 -16.302598022460938 89.27279818725586 -17.35829901123047Q90.03420098876954 -18.414 91.27080560302736 -18.921600494384766Q92.50741021728516 -19.42920098876953 93.91141516113282 -19.42920098876953Z M125.59141516113282 -19.116Q125.48341516113281 -18.089995056152343 125.44291516113282 -17.126090606689452Q125.40241516113282 -16.16218615722656 125.40241516113282 -15.659983520507812Q125.40241516113282 -15.158305144279234 125.42941516113282 -14.698433299403039Q125.45641516113281 -14.238561454526842 125.48341516113281 -13.931980224609374H124.86241516113282Q124.66801318359376 -15.654588134765625 124.2792075805664 -16.656292419433594Q123.89040197753907 -17.657996704101564 123.11549835205079 -18.076498352050784Q122.3405947265625 -18.495 120.97439868164062 -18.495H119.11142175292969Q118.23865929645041 -18.495 117.78944332620372 -18.351900329589846Q117.34022735595704 -18.208800659179687 117.1863278503418 -17.759927101135254Q117.03242834472657 -17.31105354309082 117.03242834472657 -16.362006591796874V-2.753993408203125Q117.03242834472657 -1.8305963745117186 117.1863278503418 -1.3688978576660156Q117.34022735595704 -0.9071993408203125 117.78944332620372 -0.7640996704101563Q118.23865929645041 -0.621 119.11142175292969 -0.621H120.86640856933595Q122.40539868164063 -0.621 123.3045 -1.104301483154297Q124.20360131835938 -1.5876029663085938 124.6842067565918 -2.700007415771484Q125.16481219482422 -3.812411865234375 125.40241516113282 -5.724019775390625H126.02341516113282Q125.94241516113281 -4.946416809082031 125.94241516113281 -3.67201318359375Q125.94241516113281 -3.1270912353515623 125.98021499633789 -2.1089475952148438Q126.01801483154297 -1.090803955078125 126.13141516113282 0.0Q124.75441516113281 -0.054 123.02641516113282 -0.0675Q121.29841516113282 -0.081 119.94841516113281 -0.081Q119.3295266856318 -0.081 118.35899703086884 -0.081Q117.38846737610588 -0.081 116.26321560246765 -0.0675Q115.13796382882944 -0.054 113.98458076085026 -0.0405Q112.8311976928711 -0.027 111.79439538574219 0.0V-0.54Q112.69619439697266 -0.594 113.15461906985018 -0.756Q113.61304374272773 -0.918 113.77021791628573 -1.404Q113.92739208984375 -1.89 113.92739208984375 -2.862V-16.254Q113.92739208984375 -17.253 113.76952851250832 -17.7255Q113.61166493517288 -18.198 113.15122950127784 -18.3735Q112.69079406738281 -18.549 111.79439538574219 -18.576V-19.116Q112.83369364352187 -19.089 113.98534846971015 -19.075499999999998Q115.13700329589844 -19.062 116.26247975560239 -19.0485Q117.38795621530633 -19.035 118.35867966180099 -19.035Q119.32940310829565 -19.035 119.94841516113281 -19.035Q121.19041516113282 -19.035 122.76991516113281 -19.0485Q124.34941516113281 -19.062 125.59141516113282 -19.116ZM121.0932240600586 -9.882Q121.0932240600586 -9.882 121.0932240600586 -9.612Q121.0932240600586 -9.342 121.0932240600586 -9.342H116.22242834472657Q116.22242834472657 -9.342 116.22242834472657 -9.612Q116.22242834472657 -9.882 116.22242834472657 -9.882ZM121.8762240600586 -13.446Q121.7682240600586 -11.907 121.7817240600586 -11.097Q121.7952240600586 -10.286999999999999 121.7952240600586 -9.612Q121.7952240600586 -8.937 121.8222240600586 -8.126999999999999Q121.8492240600586 -7.317 121.95722406005859 -5.778H121.3362240600586Q121.21742340087891 -6.6690016479492185 120.99871911621094 -7.489801483154297Q120.78001483154297 -8.310601318359375 120.2238113708496 -8.826300659179687Q119.66760791015625 -9.342 118.51200988769531 -9.342V-9.882Q119.3760082397461 -9.882 119.87821005249023 -10.238399505615234Q120.38041186523438 -10.594799011230469 120.6477149963379 -11.156398681640624Q120.91501812744141 -11.717998352050781 121.04192092895508 -12.328198516845703Q121.16882373046876 -12.938398681640624 121.2552240600586 -13.446Z M162.23250555705337 -19.494Q164.89439096651145 -19.494 166.89780998520885 -18.333Q168.90122900390625 -17.172 170.0082314758301 -14.9985Q171.11523394775392 -12.825 171.11523394775392 -9.72Q171.11523394775392 -6.696 169.9804301679323 -4.428Q168.8456263881107 -2.16 166.82819744620565 -0.891Q164.81076850430057 0.378 162.20492278767318 0.378Q159.5430373782151 0.378 157.5396183595177 -0.7829999999999999Q155.5361993408203 -1.944 154.4291968688965 -4.131Q153.32219439697266 -6.318 153.32219439697266 -9.395999999999999Q153.32219439697266 -12.42 154.47100810000194 -14.687999999999999Q155.61982180303121 -16.956 157.62324082172861 -18.225Q159.62665984042602 -19.494 162.23250555705337 -19.494ZM162.12230066975272 -19.008Q160.45021911621095 -19.008 159.21362274169923 -17.793Q157.9770263671875 -16.578 157.2966285095215 -14.445Q156.61623065185546 -12.312 156.61623065185546 -9.504Q156.61623065185546 -6.642 157.37644807098548 -4.5225Q158.1366654901155 -2.403 159.43805463133805 -1.2555Q160.73944377256063 -0.108 162.3114187748295 -0.108Q163.98647410511597 -0.108 165.22343804132754 -1.323Q166.46040197753908 -2.538 167.1407998352051 -4.6845Q167.8211976928711 -6.8309999999999995 167.8211976928711 -9.612Q167.8211976928711 -12.501 167.05976587086803 -14.607Q166.29833404886497 -16.713 165.00777163869031 -17.860500000000002Q163.71720922851563 -19.008 162.12230066975272 -19.008Z M196.30441516113282 -19.116Q196.19641516113282 -18.025196044921874 196.15591516113284 -17.007052404785156Q196.11541516113283 -15.988908764648437 196.11541516113283 -15.44398681640625Q196.11541516113283 -14.809733109907672 196.14241516113282 -14.254761116721415Q196.16941516113283 -13.699789123535156 196.19641516113282 -13.283990112304688H195.5754151611328Q195.33241186523438 -15.244194396972656 194.91120593261718 -16.375496704101565Q194.49 -17.50679901123047 193.65029818725588 -18.000899505615237Q192.81059637451173 -18.495 191.2554052734375 -18.495H189.8244217529297Q188.95165929645043 -18.495 188.50244332620372 -18.351900329589846Q188.05322735595703 -18.208800659179687 187.89932785034182 -17.759927101135254Q187.74542834472658 -17.31105354309082 187.74542834472658 -16.362006591796874V-2.9160032958984377Q187.74542834472658 -1.9197018127441405 187.95332867431642 -1.421551071166992Q188.16122900390627 -0.9234003295898437 188.76602966308596 -0.7614003295898437Q189.37083032226565 -0.5994003295898438 190.52643164062502 -0.5562009887695313V0.0Q189.78122900390628 -0.04859967041015625 188.6202240600586 -0.06479983520507812Q187.45921911621096 -0.081 186.23881219482422 -0.081Q185.14800988769534 -0.081 184.1652059326172 -0.06479983520507812Q183.1824019775391 -0.04859967041015625 182.5073953857422 0.0V-0.54Q183.40919439697268 -0.594 183.8676190698502 -0.756Q184.32604374272773 -0.918 184.48321791628575 -1.404Q184.64039208984377 -1.89 184.64039208984377 -2.862V-16.254Q184.64039208984377 -17.253 184.48252851250834 -17.7255Q184.32466493517288 -18.198 183.86422950127786 -18.3735Q183.40379406738282 -18.549 182.5073953857422 -18.576V-19.116Q183.54669364352188 -19.089 184.69834846971017 -19.075499999999998Q185.85000329589846 -19.062 186.9754797556024 -19.0485Q188.10095621530635 -19.035 189.071679661801 -19.035Q190.04240310829564 -19.035 190.66141516113282 -19.035Q191.9034151611328 -19.035 193.48291516113284 -19.0485Q195.06241516113283 -19.062 196.30441516113282 -19.116ZM192.17341845703126 -9.666003295898438Q192.17341845703126 -9.666003295898438 192.17341845703126 -9.396003295898439Q192.17341845703126 -9.126003295898437 192.17341845703126 -9.126003295898437H186.93542834472657Q186.93542834472657 -9.126003295898437 186.93542834472657 -9.396003295898439Q186.93542834472657 -9.666003295898438 186.93542834472657 -9.666003295898438ZM192.7404217529297 -13.230003295898438Q192.6324217529297 -11.691003295898437 192.6459217529297 -10.881003295898438Q192.6594217529297 -10.071003295898437 192.6594217529297 -9.396003295898437Q192.6594217529297 -8.721003295898438 192.68642175292968 -7.911003295898437Q192.7134217529297 -7.101003295898438 192.8214217529297 -5.562003295898437H192.20042175292969Q192.08162109375002 -6.453004943847656 191.86291680908204 -7.2738047790527345Q191.6442125244141 -8.094604614257813 191.08800906372073 -8.610303955078125Q190.53180560302735 -9.126003295898437 189.37620758056642 -9.126003295898437V-9.666003295898438Q190.2402059326172 -9.666003295898438 190.74240774536133 -10.022402801513671Q191.24460955810548 -10.378802307128906 191.511912689209 -10.94040197753906Q191.77921582031252 -11.502001647949218 191.90611862182618 -12.11220181274414Q192.03302142333985 -12.722401977539063 192.1194217529297 -13.230003295898438Z M239.91121252441408 -19.116V-18.576Q239.01481384277344 -18.52199835205078 238.55311450195313 -18.246596374511718Q238.09141516113283 -17.971194396972656 237.93481549072266 -17.369090606689454Q237.7782158203125 -16.76698681640625 237.7782158203125 -15.659980224609376V0.10799835205078125Q237.56761285400393 0.09719769287109375 237.3543088989258 0.09719769287109375Q237.14100494384766 0.09719769287109375 236.90340032958986 0.10799835205078125L225.43919274902345 -16.523947265625V-3.5640263671875Q225.43919274902345 -2.4246161499023438 225.6092924194336 -1.7901112060546875Q225.77939208984375 -1.1556062622070313 226.31669274902345 -0.8883039550781251Q226.85399340820314 -0.6210016479492187 227.95019604492188 -0.54V0.0Q227.4533953857422 -0.054 226.65419439697268 -0.0675Q225.85499340820314 -0.081 225.14219274902345 -0.081Q224.483393737793 -0.081 223.8083945617676 -0.0675Q223.1333953857422 -0.054 222.6851960449219 0.0V-0.54Q223.58699505615235 -0.6210016479492187 224.04599423217775 -0.8829036254882812Q224.50499340820315 -1.1448056030273437 224.6615930786133 -1.760409393310547Q224.81819274902344 -2.37601318359375 224.81819274902344 -3.456019775390625V-16.254Q224.81819274902344 -17.253 224.6615930786133 -17.7255Q224.50499340820315 -18.198 224.04329406738282 -18.3735Q223.5815947265625 -18.549 222.6851960449219 -18.576V-19.116Q223.1333953857422 -19.089 223.8083945617676 -19.061999999999998Q224.483393737793 -19.035 225.14219274902345 -19.035Q225.75239373779297 -19.035 226.31399505615235 -19.061999999999998Q226.87559637451173 -19.089 227.32379736328127 -19.116L237.1572158203125 -5.0328369140625V-15.5519736328125Q237.1572158203125 -16.712983520507812 236.98711614990236 -17.33668862915039Q236.8170164794922 -17.96039373779297 236.28241598510743 -18.241196044921875Q235.74781549072267 -18.52199835205078 234.64621252441407 -18.576V-19.116Q235.14301318359375 -19.089 235.95301400756836 -19.061999999999998Q236.763014831543 -19.035 237.45421582031253 -19.035Q238.14001483154297 -19.035 238.81231384277345 -19.061999999999998Q239.48461285400393 -19.089 239.91121252441408 -19.116Z M260.0625055570534 -19.494Q262.72439096651146 -19.494 264.72780998520886 -18.333Q266.73122900390626 -17.172 267.83823147583007 -14.9985Q268.94523394775393 -12.825 268.94523394775393 -9.72Q268.94523394775393 -6.696 267.81043016793234 -4.428Q266.67562638811074 -2.16 264.6581974462057 -0.891Q262.6407685043006 0.378 260.0349227876732 0.378Q257.37303737821514 0.378 255.36961835951774 -0.7829999999999999Q253.36619934082032 -1.944 252.25919686889648 -4.131Q251.15219439697267 -6.318 251.15219439697267 -9.395999999999999Q251.15219439697267 -12.42 252.30100810000195 -14.687999999999999Q253.44982180303123 -16.956 255.45324082172863 -18.225Q257.456659840426 -19.494 260.0625055570534 -19.494ZM259.95230066975273 -19.008Q258.28021911621096 -19.008 257.0436227416992 -17.793Q255.80702636718752 -16.578 255.12662850952148 -14.445Q254.44623065185547 -12.312 254.44623065185547 -9.504Q254.44623065185547 -6.642 255.2064480709855 -4.5225Q255.9666654901155 -2.403 257.2680546313381 -1.2555Q258.56944377256065 -0.108 260.1414187748295 -0.108Q261.81647410511596 -0.108 263.0534380413275 -1.323Q264.2904019775391 -2.538 264.97079983520507 -4.6845Q265.6511976928711 -6.8309999999999995 265.6511976928711 -9.612Q265.6511976928711 -12.501 264.889765870868 -14.607Q264.128334048865 -16.713 262.8377716386903 -17.860500000000002Q261.5472092285156 -19.008 259.95230066975273 -19.008Z M287.7624283447266 -19.116V-18.576Q286.84442834472657 -18.549 286.3719283447266 -18.3735Q285.8994283447266 -18.198 285.7374283447266 -17.7255Q285.57542834472656 -17.253 285.57542834472656 -16.254V-2.753993408203125Q285.57542834472656 -1.8305963745117186 285.7266276855469 -1.3688978576660156Q285.8778270263672 -0.9071993408203125 286.3152248840332 -0.7640996704101563Q286.7526227416992 -0.621 287.60041845703125 -0.621H289.3554052734375Q290.51099835205076 -0.621 291.31019851684573 -0.9450032958984375Q292.10939868164064 -1.269006591796875 292.6413023071289 -1.9224110412597657Q293.1732059326172 -2.5758154907226563 293.48100988769534 -3.5937182922363284Q293.78881384277344 -4.61162109375 293.9454151611328 -5.994019775390625H294.5664151611328Q294.48541516113283 -5.1300181274414065 294.48541516113283 -3.7260164794921873Q294.48541516113283 -3.1752141723632814 294.5232149963379 -2.1411095581054687Q294.561014831543 -1.1070049438476561 294.6744151611328 0.0Q293.2974151611328 -0.054 291.56941516113284 -0.0675Q289.84141516113283 -0.081 288.4914151611328 -0.081Q287.87041351318356 -0.081 286.9011112060547 -0.081Q285.9318088989258 -0.081 284.8059060974121 -0.0675Q283.6800032958984 -0.054 282.52710049438474 -0.0405Q281.37419769287106 -0.027 280.3373953857422 0.0V-0.54Q281.23919439697266 -0.594 281.69819357299804 -0.756Q282.1571927490234 -0.918 282.3137924194336 -1.404Q282.47039208984376 -1.89 282.47039208984376 -2.862V-16.254Q282.47039208984376 -17.253 282.3137924194336 -17.7255Q282.1571927490234 -18.198 281.6954934082031 -18.3735Q281.2337940673828 -18.549 280.3373953857422 -18.576V-19.116Q280.9475980224609 -19.089 281.9385024719238 -19.061999999999998Q282.9294069213867 -19.035 284.06341186523434 -19.035Q285.089416809082 -19.035 286.09382125854495 -19.061999999999998Q287.0982257080078 -19.089 287.7624283447266 -19.116Z M322.1964085693359 -19.116V-18.576Q321.3000098876953 -18.52199835205078 320.838310546875 -18.246596374511718Q320.3766112060547 -17.971194396972656 320.2200115356445 -17.369090606689454Q320.06341186523434 -16.76698681640625 320.06341186523434 -15.659980224609376V-7.857Q320.06341186523434 -6.01020263671875 319.8231120300293 -4.590001647949219Q319.5828121948242 -3.1698006591796877 318.9564118652344 -2.133Q318.2760115356445 -0.9935996704101563 316.96111038208005 -0.30779983520507814Q315.6462092285156 0.378 313.84260131835936 0.378Q312.55740197753903 0.378 311.3423995056152 0.07560049438476563Q310.1273970336914 -0.22679901123046875 309.1985947265625 -1.0475980224609376Q308.38859307861327 -1.7873970336914062 307.9349925842285 -2.6513986816406248Q307.4813920898437 -3.5154003295898435 307.31939208984375 -4.7466013183593745Q307.1573920898437 -5.977802307128906 307.1573920898437 -7.776V-16.254Q307.1573920898437 -17.253 307.00079241943354 -17.7255Q306.8441927490234 -18.198 306.385193572998 -18.3735Q305.9261943969726 -18.549 305.0243953857422 -18.576V-19.116Q305.6345980224609 -19.089 306.6255024719238 -19.061999999999998Q307.6164069213867 -19.035 308.7396112060547 -19.035Q309.77641680908204 -19.035 310.7808212585449 -19.061999999999998Q311.7852257080078 -19.089 312.4494283447265 -19.116V-18.576Q311.5314283447265 -18.549 311.0589283447265 -18.3735Q310.5864283447265 -18.198 310.4244283447265 -17.7255Q310.2624283447265 -17.253 310.2624283447265 -16.254V-6.901174621582031Q310.2624283447265 -5.534975280761719 310.41362933349603 -4.371279235839844Q310.5648303222656 -3.2075831909179686 310.9833303222656 -2.354387969970703Q311.4018303222656 -1.5011927490234376 312.2199275207519 -1.0340963745117189Q313.03802471923825 -0.567 314.3502174682617 -0.567Q316.35361450195313 -0.567 317.45521334838867 -1.466099670410156Q318.5568121948242 -2.3651993408203125 318.9996120300293 -3.9554991760253904Q319.44241186523436 -5.545799011230469 319.44241186523436 -7.56V-15.5519736328125Q319.44241186523436 -16.712983520507812 319.2291128540039 -17.33668862915039Q319.0158138427734 -17.96039373779297 318.47041351318353 -18.241196044921875Q317.9250131835937 -18.52199835205078 316.93140856933593 -18.576V-19.116Q317.4282092285156 -19.089 318.2382100524902 -19.061999999999998Q319.04821087646485 -19.035 319.73941186523433 -19.035Q320.4252108764648 -19.035 321.0975098876953 -19.061999999999998Q321.76980889892576 -19.089 322.1964085693359 -19.116Z M344.2373986816406 0.0V-0.54Q345.1391976928711 -0.594 345.59762236574863 -0.756Q346.05604703862616 -0.918 346.2132212121842 -1.404Q346.3703953857422 -1.89 346.3703953857422 -2.862V-16.254Q346.3703953857422 -17.253 346.21253180840677 -17.7255Q346.05466823107133 -18.198 345.5942327971763 -18.3735Q345.13379736328125 -18.549 344.2373986816406 -18.576V-19.116Q344.9016013183594 -19.089 345.9195057678223 -19.061999999999998Q346.93741021728516 -19.035 347.9364151611328 -19.035Q349.0563388717509 -19.035 350.0326826194692 -19.061999999999998Q351.0090263671875 -19.089 351.6084283447266 -19.116V-18.576Q350.711716600501 -18.549 350.2501737909731 -18.3735Q349.7886309814453 -18.198 349.6320313110351 -17.7255Q349.475431640625 -17.253 349.475431640625 -16.254V-2.862Q349.475431640625 -1.89 349.6334313964844 -1.404Q349.79143115234376 -0.918 350.25226377360025 -0.756Q350.7130963948568 -0.594 351.6084283447266 -0.54V0.0Q351.0090263671875 -0.054 350.0326826194692 -0.0675Q349.0563388717509 -0.081 347.9364151611328 -0.081Q346.93741021728516 -0.081 345.9195057678223 -0.0675Q344.9016013183594 -0.054 344.2373986816406 0.0ZM332.8973953857422 0.0V-0.54Q333.79919439697267 -0.594 334.2576190698502 -0.756Q334.7160437427277 -0.918 334.87321791628574 -1.404Q335.03039208984376 -1.89 335.03039208984376 -2.862V-16.254Q335.03039208984376 -17.253 334.8725285125083 -17.7255Q334.7146649351729 -18.198 334.25422950127785 -18.3735Q333.7937940673828 -18.549 332.8973953857422 -18.576V-19.116Q333.50869496440885 -19.089 334.49841809177394 -19.061999999999998Q335.4881412191391 -19.035 336.6234118652344 -19.035Q337.6332158203125 -19.035 338.6241194458008 -19.061999999999998Q339.61502307128904 -19.089 340.26842504882814 -19.116V-18.576Q339.37171330460257 -18.549 338.9101704950747 -18.3735Q338.44862768554685 -18.198 338.2920280151367 -17.7255Q338.13542834472656 -17.253 338.13542834472656 -16.254V-2.862Q338.13542834472656 -1.89 338.29342810058597 -1.404Q338.4514278564453 -0.918 338.9122604777018 -0.756Q339.37309309895835 -0.594 340.26842504882814 -0.54V0.0Q339.61502307128904 -0.054 338.6241194458008 -0.0675Q337.6332158203125 -0.081 336.6234118652344 -0.081Q335.4881412191391 -0.081 334.49841809177394 -0.0675Q333.50869496440885 -0.054 332.8973953857422 0.0ZM336.92041186523437 -9.342V-9.882H347.5854118652344V-9.342Z M370.1394283447266 -19.116V-18.576Q369.2214283447266 -18.549 368.74892834472655 -18.3735Q368.2764283447266 -18.198 368.11442834472655 -17.7255Q367.95242834472657 -17.253 367.95242834472657 -16.254V-2.753993408203125Q367.95242834472657 -1.8305963745117186 368.1036276855469 -1.3688978576660156Q368.2548270263672 -0.9071993408203125 368.6922248840332 -0.7640996704101563Q369.1296227416992 -0.621 369.97741845703126 -0.621H371.7324052734375Q372.8879983520508 -0.621 373.6871985168457 -0.9450032958984375Q374.48639868164065 -1.269006591796875 375.0183023071289 -1.9224110412597657Q375.5502059326172 -2.5758154907226563 375.8580098876953 -3.5937182922363284Q376.16581384277345 -4.61162109375 376.3224151611328 -5.994019775390625H376.9434151611328Q376.86241516113284 -5.1300181274414065 376.86241516113284 -3.7260164794921873Q376.86241516113284 -3.1752141723632814 376.9002149963379 -2.1411095581054687Q376.938014831543 -1.1070049438476561 377.0514151611328 0.0Q375.6744151611328 -0.054 373.9464151611328 -0.0675Q372.21841516113284 -0.081 370.8684151611328 -0.081Q370.2474135131836 -0.081 369.2781112060547 -0.081Q368.3088088989258 -0.081 367.1829060974121 -0.0675Q366.0570032958984 -0.054 364.90410049438475 -0.0405Q363.7511976928711 -0.027 362.7143953857422 0.0V-0.54Q363.6161943969727 -0.594 364.07519357299805 -0.756Q364.5341927490234 -0.918 364.6907924194336 -1.404Q364.84739208984377 -1.89 364.84739208984377 -2.862V-16.254Q364.84739208984377 -17.253 364.6907924194336 -17.7255Q364.5341927490234 -18.198 364.0724934082031 -18.3735Q363.6107940673828 -18.549 362.7143953857422 -18.576V-19.116Q363.3245980224609 -19.089 364.3155024719238 -19.061999999999998Q365.3064069213867 -19.035 366.4404118652344 -19.035Q367.46641680908203 -19.035 368.4708212585449 -19.061999999999998Q369.4752257080078 -19.089 370.1394283447266 -19.116Z M401.60341516113283 -19.116Q401.4954151611328 -18.089995056152343 401.4549151611328 -17.126090606689452Q401.4144151611328 -16.16218615722656 401.4144151611328 -15.659983520507812Q401.4144151611328 -15.158305144279234 401.4414151611328 -14.698433299403039Q401.4684151611328 -14.238561454526842 401.4954151611328 -13.931980224609374H400.8744151611328Q400.68001318359376 -15.654588134765625 400.2912075805664 -16.656292419433594Q399.90240197753906 -17.657996704101564 399.1274983520508 -18.076498352050784Q398.3525947265625 -18.495 396.9863986816406 -18.495H395.1234217529297Q394.2506592964504 -18.495 393.80144332620375 -18.351900329589846Q393.35222735595704 -18.208800659179687 393.1983278503418 -17.759927101135254Q393.04442834472655 -17.31105354309082 393.04442834472655 -16.362006591796874V-2.753993408203125Q393.04442834472655 -1.8305963745117186 393.1983278503418 -1.3688978576660156Q393.35222735595704 -0.9071993408203125 393.80144332620375 -0.7640996704101563Q394.2506592964504 -0.621 395.1234217529297 -0.621H396.87840856933593Q398.41739868164063 -0.621 399.3165 -1.104301483154297Q400.21560131835935 -1.5876029663085938 400.6962067565918 -2.700007415771484Q401.1768121948242 -3.812411865234375 401.4144151611328 -5.724019775390625H402.0354151611328Q401.95441516113283 -4.946416809082031 401.95441516113283 -3.67201318359375Q401.95441516113283 -3.1270912353515623 401.9922149963379 -2.1089475952148438Q402.030014831543 -1.090803955078125 402.1434151611328 0.0Q400.7664151611328 -0.054 399.0384151611328 -0.0675Q397.3104151611328 -0.081 395.9604151611328 -0.081Q395.3415266856318 -0.081 394.3709970308688 -0.081Q393.40046737610584 -0.081 392.2752156024676 -0.0675Q391.1499638288294 -0.054 389.99658076085024 -0.0405Q388.84319769287106 -0.027 387.8063953857422 0.0V-0.54Q388.70819439697266 -0.594 389.1666190698502 -0.756Q389.6250437427277 -0.918 389.78221791628573 -1.404Q389.93939208984375 -1.89 389.93939208984375 -2.862V-16.254Q389.93939208984375 -17.253 389.7815285125083 -17.7255Q389.6236649351729 -18.198 389.16322950127784 -18.3735Q388.7027940673828 -18.549 387.8063953857422 -18.576V-19.116Q388.8456936435218 -19.089 389.9973484697101 -19.075499999999998Q391.1490032958984 -19.062 392.27447975560233 -19.0485Q393.3999562153063 -19.035 394.370679661801 -19.035Q395.34140310829565 -19.035 395.9604151611328 -19.035Q397.2024151611328 -19.035 398.7819151611328 -19.0485Q400.3614151611328 -19.062 401.60341516113283 -19.116ZM397.10522406005856 -9.882Q397.10522406005856 -9.882 397.10522406005856 -9.612Q397.10522406005856 -9.342 397.10522406005856 -9.342H392.23442834472655Q392.23442834472655 -9.342 392.23442834472655 -9.612Q392.23442834472655 -9.882 392.23442834472655 -9.882ZM397.8882240600586 -13.446Q397.7802240600586 -11.907 397.7937240600586 -11.097Q397.80722406005856 -10.286999999999999 397.80722406005856 -9.612Q397.80722406005856 -8.937 397.83422406005855 -8.126999999999999Q397.8612240600586 -7.317 397.9692240600586 -5.778H397.34822406005856Q397.2294234008789 -6.6690016479492185 397.0107191162109 -7.489801483154297Q396.792014831543 -8.310601318359375 396.2358113708496 -8.826300659179687Q395.6796079101562 -9.342 394.5240098876953 -9.342V-9.882Q395.38800823974606 -9.882 395.8902100524902 -10.238399505615234Q396.39241186523435 -10.594799011230469 396.65971499633787 -11.156398681640624Q396.9270181274414 -11.717998352050781 397.05392092895505 -12.328198516845703Q397.1808237304687 -12.938398681640624 397.2672240600586 -13.446Z" fill="#FAF6F0"/>
</svg>