<svg xmlns="http://www.w3.org/2000/svg" viewBox="0 0 240 240" role="img" aria-label="House of Noluhle monogram">
<title>House of Noluhle monogram</title>
<circle cx="120" cy="120" r="102" fill="none" stroke="#C9A227" stroke-width="3"/>
<circle cx="120" cy="120" r="87" fill="none" stroke="#C9A227" stroke-width="1.4"/>
<path transform="translate(85.87 152.00)" d="M65.04964453125 -67.968V-66.048Q61.86244921875 -65.855994140625 60.2208515625 -64.876787109375Q58.57925390625 -63.897580078125 58.022455078125006 -61.756766601562504Q57.46565625 -59.615953125000004 57.46565625 -55.6799296875V0.38399414062500004Q56.716845703125 0.345591796875 55.958431640625 0.345591796875Q55.200017578125 0.345591796875 54.355201171875 0.38399414062500004L13.59357421875 -58.7518125V-12.67209375Q13.59357421875 -8.620857421875 14.198373046875 -6.36483984375Q14.803171875 -4.108822265625 16.71357421875 -3.1584140625000003Q18.6239765625 -2.208005859375 22.5215859375 -1.92V0.0Q20.75518359375 -0.192 17.913580078125 -0.24000000000000002Q15.0719765625 -0.28800000000000003 12.53757421875 -0.28800000000000003Q10.195177734375001 -0.28800000000000003 7.7951806640625 -0.24000000000000002Q5.39518359375 -0.192 3.8015859375 0.0V-1.92Q7.007982421875 -2.208005859375 8.6399794921875 -3.139212890625Q10.2719765625 -4.070419921875 10.828775390625001 -6.2592333984375Q11.38557421875 -8.448046875 11.38557421875 -12.2880703125V-57.792Q11.38557421875 -61.344 10.828775390625001 -63.024Q10.2719765625 -64.70400000000001 8.63037890625 -65.328Q6.98878125 -65.952 3.8015859375 -66.048V-67.968Q5.39518359375 -67.872 7.7951806640625 -67.77600000000001Q10.195177734375001 -67.68 12.53757421875 -67.68Q14.707177734375 -67.68 16.703982421875 -67.77600000000001Q18.700787109375 -67.872 20.294390625000002 -67.968L55.257656250000004 -17.89453125V-55.29590625Q55.257656250000004 -59.42394140625 54.652857421875 -61.6415595703125Q54.04805859375 -63.859177734375 52.1472568359375 -64.8575859375Q50.246455078125 -65.855994140625 46.329644531250004 -66.048V-67.968Q48.096046875 -67.872 50.9760498046875 -67.77600000000001Q53.856052734375 -67.68 56.31365625 -67.68Q58.752052734375 -67.68 61.14244921875 -67.77600000000001Q63.532845703125 -67.872 65.04964453125 -67.968Z" fill="#FAF6F0"/>
</svg>